<svg width="60" height="60" viewBox="0 0 60 60" fill="none" xmlns="http://www.w3.org/2000/svg">
<path d="M30.5832 21.0555C25.5276 20.6666 21.4444 16.5832 21.4444 11.5277C21.4444 6.2777 25.7222 2 30.9722 2C36.2222 2 40.5 6.2777 40.5 11.5277C40.5 13.6666 39.7222 16 38.5556 17.5555" stroke="#4BA82E" stroke-width="3" stroke-miterlimit="10" stroke-linecap="round" stroke-linejoin="round"/>
<path d="M47.6944 27.0832C47.6944 32.3332 43.4165 36.6111 38.1666 36.6111C32.9166 36.6111 28.6387 32.3332 28.6387 27.0832C28.6387 21.8333 32.9166 17.5556 38.1666 17.5556C43.4165 17.3611 47.6944 21.8333 47.6944 27.0832Z" stroke="#4BA82E" stroke-width="3" stroke-miterlimit="10" stroke-linecap="round" stroke-linejoin="round"/>
<path d="M11.7222 43.4167C16.7777 42.6389 23.5832 42.0556 27.6665 43.4167L41.0832 47.6945C44.9721 48.8612 43.2221 55.0834 39.3332 53.9167L25.3333 49.4444" stroke="#4BA82E" stroke-width="3" stroke-linecap="round" stroke-linejoin="round"/>
<path d="M42.8333 49.25L53.3333 44.1945C57.0277 42.25 59.5554 48.2778 55.8609 50.0278C40.1109 57.8056 41.2777 57.8056 35.0555 57.8056C31.3611 57.8056 26.1112 57.2222 19.1112 53.9167C17.7501 53.1389 14.6389 53.7222 11.7222 54.5" stroke="#4BA82E" stroke-width="3" stroke-linecap="round" stroke-linejoin="round"/>
<path d="M11.7222 40.5H2V58H11.7222V40.5Z" stroke="#4BA82E" stroke-width="3" stroke-linecap="round" stroke-linejoin="round"/>
</svg>
