<svg width="50" height="50" viewBox="0 0 50 50" fill="none" xmlns="http://www.w3.org/2000/svg">
<path d="M25.8928 25C25.8928 25.4931 25.4931 25.8929 25 25.8929C24.5069 25.8929 24.1071 25.4931 24.1071 25C24.1071 24.507 24.5069 24.1072 25 24.1072C25.4931 24.1072 25.8928 24.507 25.8928 25Z" fill="#4BA82E"/>
<path d="M42.8572 25C42.8572 24.5069 43.2569 24.1071 43.75 24.1071H46.4064C46.2782 20.9529 45.4498 17.8667 43.9811 15.0722L41.6848 16.3984C41.4084 16.5601 41.0662 16.5619 40.7885 16.4023C40.5108 16.2427 40.3399 15.9463 40.3403 15.6258C40.3412 15.3054 40.5134 15.0103 40.792 14.8516L43.0847 13.5275C41.3901 10.8668 39.1331 8.60985 36.4724 6.91525L35.1484 9.20799C34.9897 9.48657 34.6946 9.65878 34.3741 9.65965C34.0537 9.66009 33.7573 9.48919 33.5977 9.21148C33.4381 8.93377 33.4399 8.59154 33.6016 8.31513L34.9278 6.0189C32.1333 4.55014 29.0471 3.7218 25.8929 3.59363V6.24997C25.8929 6.74304 25.4931 7.14282 25 7.14282C24.5069 7.14282 24.1072 6.74304 24.1072 6.24997V3.59363C20.9529 3.7218 17.8667 4.55014 15.0722 6.0189L16.3984 8.31513C16.5602 8.59154 16.5619 8.93377 16.4023 9.21148C16.2428 9.48919 15.9463 9.66009 15.6259 9.65965C15.3054 9.65878 15.0103 9.48657 14.8516 9.20799L13.5276 6.91525C10.8669 8.60985 8.60989 10.8668 6.91529 13.5275L9.20804 14.8516C9.48662 15.0103 9.65883 15.3054 9.6597 15.6258C9.66013 15.9463 9.48923 16.2427 9.21152 16.4023C8.93381 16.5619 8.59158 16.5601 8.31518 16.3984L6.01895 15.0722C4.55018 17.8667 3.72185 20.9529 3.59367 24.1071H6.25001C6.74309 24.1071 7.14287 24.5069 7.14287 25C7.14287 25.493 6.74309 25.8928 6.25001 25.8928H3.59367C3.72185 29.047 4.55018 32.1332 6.01895 34.9278L8.31518 33.6016C8.59158 33.4398 8.93381 33.4381 9.21152 33.5976C9.48923 33.7572 9.66013 34.0537 9.6597 34.3741C9.65883 34.6945 9.48662 34.9897 9.20804 35.1484L6.91529 36.4724C8.60989 39.1331 10.8669 41.3901 13.5276 43.0847L14.8516 40.7919C15.0103 40.5134 15.3054 40.3412 15.6259 40.3403C15.9463 40.3398 16.2428 40.5107 16.4023 40.7885C16.5619 41.0662 16.5602 41.4084 16.3984 41.6848L15.0722 43.981C17.8667 45.4498 20.9529 46.2781 24.1072 46.4063V43.75C24.1072 43.2569 24.5069 42.8571 25 42.8571C25.4931 42.8571 25.8929 43.2569 25.8929 43.75V46.4063C29.0471 46.2781 32.1333 45.4498 34.9278 43.981L33.6016 41.6848C33.4399 41.4084 33.4381 41.0662 33.5977 40.7885C33.7573 40.5107 34.0537 40.3398 34.3741 40.3403C34.6946 40.3412 34.9897 40.5134 35.1484 40.7919L36.4724 43.0847C39.1331 41.3901 41.3901 39.1331 43.0847 36.4724L40.792 35.1484C40.5134 34.9897 40.3412 34.6945 40.3403 34.3741C40.3399 34.0537 40.5108 33.7572 40.7885 33.5976C41.0662 33.4381 41.4084 33.4398 41.6848 33.6016L43.9811 34.9278C45.4498 32.1332 46.2782 29.047 46.4064 25.8928H43.75C43.2569 25.8928 42.8572 25.493 42.8572 25ZM25 27.6785C23.8691 27.6737 22.8629 26.9592 22.4858 25.8928H17.8572C17.3641 25.8928 16.9643 25.493 16.9643 25C16.9643 24.5069 17.3641 24.1071 17.8572 24.1071H22.4858C22.7557 23.3507 23.3508 22.7556 24.1072 22.4858V12.5C24.1072 12.0069 24.5069 11.6071 25 11.6071C25.4931 11.6071 25.8929 12.0069 25.8929 12.5V22.4858C27.1219 22.9187 27.8595 24.1747 27.6389 25.459C27.4179 26.7434 26.3031 27.6812 25 27.6785Z" fill="#4BA82E"/>
<path d="M25 0C11.193 0 0 11.193 0 25C0 38.807 11.193 50 25 50C38.807 50 50 38.807 50 25C49.9843 11.1995 38.8005 0.0156948 25 0ZM45.1045 36.6071C45.0902 36.632 45.0688 36.6507 45.0518 36.6752C43.0206 40.1489 40.1267 43.0398 36.6507 45.0679C36.6337 45.0784 36.625 45.0963 36.6071 45.1063C36.5805 45.1189 36.5531 45.1303 36.5252 45.1403C29.3893 49.2423 20.6107 49.2423 13.4748 45.1403C13.4469 45.1298 13.4195 45.1176 13.3929 45.1045C13.375 45.0945 13.3663 45.0766 13.3493 45.0662C9.87331 43.0381 6.97937 40.1472 4.94821 36.6734C4.9312 36.649 4.90984 36.6302 4.89546 36.6054C4.88107 36.5805 4.88586 36.5679 4.87671 36.5492C0.754656 29.4002 0.754656 20.5963 4.87671 13.4474C4.88586 13.4286 4.88499 13.409 4.89546 13.3911C4.90635 13.3732 4.92336 13.3632 4.93382 13.3475C6.96629 9.86328 9.86502 6.96455 13.3493 4.93208C13.3663 4.92161 13.375 4.90374 13.3929 4.89371C13.4107 4.88412 13.4304 4.88412 13.4491 4.87497C20.5981 0.752912 29.4019 0.752912 36.5509 4.87497C36.5696 4.88412 36.5893 4.88325 36.6071 4.89371C36.625 4.90461 36.6337 4.92161 36.6507 4.93208C40.135 6.96455 43.0337 9.86328 45.0662 13.3475C45.0766 13.3641 45.0945 13.3732 45.1045 13.3911C45.1141 13.409 45.1141 13.4286 45.1233 13.4474C49.2453 20.5963 49.2453 29.4002 45.1233 36.5492C45.1141 36.5696 45.115 36.5893 45.1045 36.6071Z" fill="#4BA82E"/>
</svg>
