<svg width="61" height="60" viewBox="0 0 61 60" fill="none" xmlns="http://www.w3.org/2000/svg">
<g clip-path="url(#clip0_340_925)">
<path d="M50.0269 49.5269C60.9855 38.5683 60.9855 20.8009 50.0269 9.84228C39.0683 -1.1163 21.3009 -1.1163 10.3423 9.84228C-0.616284 20.8009 -0.616284 38.5683 10.3423 49.5269C21.3009 60.4854 39.0683 60.4854 50.0269 49.5269Z" stroke="#4BA82E" stroke-width="3" stroke-miterlimit="10" stroke-linecap="round" stroke-linejoin="round"/>
<path d="M27.4138 30.48V33.504H36.3778V35.556H27.4138V42H24.8218V35.556H21.2578V33.504H24.8218V30.48H21.2938V28.284H24.8218V16.656H33.2098C34.6258 16.656 35.9218 16.908 37.0978 17.412C38.2978 17.916 39.2578 18.684 39.9778 19.716C40.6978 20.748 41.0578 22.032 41.0578 23.568C41.0578 25.104 40.6978 26.388 39.9778 27.42C39.2818 28.452 38.3338 29.22 37.1338 29.724C35.9578 30.228 34.6498 30.48 33.2098 30.48H27.4138ZM27.4138 28.284H33.2098C34.2898 28.284 35.2138 28.092 35.9818 27.708C36.7498 27.324 37.3258 26.784 37.7098 26.088C38.1178 25.368 38.3218 24.54 38.3218 23.604C38.3218 22.188 37.8778 21.072 36.9898 20.256C36.1018 19.44 34.8418 19.032 33.2098 19.032H27.4138V28.284Z" fill="#4BA82E"/>
</g>
<defs>
<clipPath id="clip0_340_925">
<rect width="60" height="60" fill="white" transform="translate(0.5)"/>
</clipPath>
</defs>
</svg>
