<svg width="50" height="50" viewBox="0 0 50 50" fill="none" xmlns="http://www.w3.org/2000/svg">
<path d="M41.0476 30.7219H35.1941L37.6847 27.1253C42.389 20.8548 41.7081 10.548 36.2289 5.0696C33.269 2.1089 29.3323 0.478149 25.1447 0.478149C20.9579 0.478149 17.0212 2.1089 14.0605 5.0696C8.58128 10.548 7.90037 20.8556 12.5858 27.1007L15.0937 30.7227H8.95239L0 49.5226H50L41.0476 30.7219ZM25.2894 10.2864C28.4438 10.2864 31.0113 12.8539 31.0113 16.0083C31.0113 19.1628 28.4438 21.7303 25.2894 21.7303C22.1349 21.7303 19.5674 19.1628 19.5674 16.0083C19.5674 12.8539 22.1341 10.2864 25.2894 10.2864ZM9.98561 32.3567H16.2258L25.1447 45.2368L34.0627 32.3567H40.0144L47.4104 47.8877H2.58959L9.98561 32.3567Z" fill="#4BA82E"/>
</svg>
