<svg width="60" height="60" viewBox="0 0 60 60" fill="none" xmlns="http://www.w3.org/2000/svg">
<path d="M29.9992 0C13.4315 0 0 13.4319 0 30C0 46.5681 13.4315 60 29.9992 60C46.5669 60 60 46.5697 60 30C60 13.4303 46.5685 0 29.9992 0ZM29.9992 57.1851C24.6223 57.1848 19.3663 55.59 14.8958 52.6024C10.4252 49.6148 6.94098 45.3686 4.88363 40.4008C2.82628 35.433 2.28823 29.9666 3.33752 24.693C4.38681 19.4193 6.97631 14.5753 10.7786 10.7734C14.5808 6.97146 19.425 4.38246 24.6987 3.33377C29.9723 2.28507 35.4384 2.82379 40.4059 4.88178C45.3734 6.93977 49.619 10.4246 52.606 14.8956C55.593 19.3666 57.1871 24.623 57.1868 30C57.1868 33.5703 56.4835 37.1056 55.1172 40.404C53.7508 43.7025 51.7482 46.6995 49.2235 49.2239C46.6989 51.7483 43.7017 53.7507 40.4032 55.1167C37.1047 56.4827 33.5694 57.1855 29.9992 57.1851Z" fill="#4BA82E"/>
<path d="M48.8419 41.8573C46.9798 40.1101 44.6365 38.9617 42.1149 38.5604C42.0296 38.5469 41.9425 38.5521 41.8594 38.5755C41.7763 38.599 41.6993 38.6401 41.6337 38.6961C41.568 38.7522 41.5153 38.8218 41.4791 38.9001C41.4429 38.9785 41.4241 39.0637 41.424 39.15V40.0739C41.424 40.3486 41.2135 40.6587 40.942 40.6587C40.7428 40.6587 40.5436 40.6587 40.3427 40.6587C39.6342 40.6491 39.5041 39.7782 39.6471 39.2641C41.1589 33.8464 41.5284 30.5575 41.5092 28.1651C41.4915 25.6201 41.4272 23.0848 40.2801 19.73C39.1763 16.5022 38.1673 13.3403 32.8333 8.51057C32.5031 8.1964 32.0708 8.01161 31.6155 7.99C31.0917 7.95305 30.6627 7.93537 30.1293 7.93537C27.9714 7.93321 25.8247 8.24662 23.7574 8.86564C23.0007 9.0954 23.1147 9.62079 23.5292 9.97908C25.5456 11.695 28.2769 14.2834 30.155 17.5128C28.9629 17.6285 28.0519 16.9649 27.284 16.2275C25.105 14.1757 22.6791 12.4033 20.0621 10.9511C19.7006 10.7487 19.3423 10.6619 18.9825 10.8692C16.8216 12.0807 14.9019 13.6792 13.319 15.5848C13.009 15.9447 13.2098 16.2275 13.5135 16.3881C16.3843 17.9559 19.0602 19.8569 21.4856 22.0517C20.904 22.5417 19.9786 22.3827 18.6402 21.6789C16.4362 20.5412 14.1076 19.6629 11.7012 19.0617C11.2979 18.9588 10.8641 19.0713 10.6552 19.4328C9.44544 21.5295 8.61159 24.0424 8.21797 26.5922C8.20043 26.7073 8.20583 26.8248 8.23385 26.9378C8.26187 27.0509 8.31196 27.1573 8.38124 27.2509C8.45052 27.3445 8.53762 27.4235 8.63754 27.4834C8.73745 27.5432 8.84821 27.5827 8.96345 27.5996C13.3656 28.3708 21.2125 30.4402 22.5155 39.4794C22.6279 40.2699 21.9081 40.9672 20.9602 40.5205L16.9934 38.6632C16.8547 38.5919 16.7025 38.5509 16.5468 38.5427H10.3098C9.42455 38.5427 9.05824 39.391 9.63502 40.0514C11.1473 41.783 12.5027 43.6455 13.6854 45.6169C13.7241 45.6952 13.7854 45.76 13.8612 45.8032C13.9371 45.8465 14.0241 45.8661 14.1111 45.8595H16.8424C17.0195 45.8606 17.1935 45.8128 17.3453 45.7214C18.2022 45.219 19.059 44.7177 19.9159 44.2175C20.0711 44.1388 20.2457 44.1065 20.4188 44.1243H40.9356C40.9985 44.1193 41.0618 44.1272 41.1215 44.1476C41.1813 44.1679 41.2362 44.2004 41.2829 44.2429C41.3296 44.2853 41.367 44.3369 41.393 44.3945C41.4189 44.452 41.4328 44.5143 41.4337 44.5774V45.588C41.434 45.6742 41.4529 45.7593 41.4892 45.8374C41.5255 45.9156 41.5783 45.985 41.6439 46.0408C41.7095 46.0967 41.7865 46.1377 41.8694 46.161C41.9524 46.1844 42.0394 46.1895 42.1245 46.1761C44.6435 45.7712 46.9833 44.6206 48.8419 42.8727C48.9115 42.8078 48.9671 42.7292 49.0051 42.6418C49.0431 42.5545 49.0627 42.4603 49.0627 42.365C49.0627 42.2698 49.0431 42.1755 49.0051 42.0882C48.9671 42.0008 48.9115 41.9222 48.8419 41.8573ZM34.0029 38.0864C33.456 38.0864 32.9213 37.9242 32.4666 37.6203C32.0119 37.3164 31.6575 36.8844 31.4482 36.3791C31.239 35.8737 31.1843 35.3177 31.2912 34.7813C31.398 34.2448 31.6615 33.7522 32.0483 33.3655C32.4352 32.9789 32.928 32.7156 33.4645 32.6091C34.001 32.5026 34.557 32.5576 35.0622 32.7671C35.5674 32.9767 35.9991 33.3313 36.3028 33.7863C36.6064 34.2412 36.7683 34.776 36.768 35.3229C36.768 35.686 36.6964 36.0454 36.5575 36.3808C36.4185 36.7162 36.2148 37.0209 35.958 37.2776C35.7012 37.5342 35.3964 37.7377 35.0609 37.8765C34.7255 38.0153 34.366 38.0866 34.0029 38.0864Z" fill="#4BA82E"/>
</svg>
