<svg width="61" height="60" viewBox="0 0 61 60" fill="none" xmlns="http://www.w3.org/2000/svg">
<g clip-path="url(#clip0_340_868)">
<path d="M59.826 10.0554L30.826 0.0553887C30.6147 -0.0174863 30.3853 -0.0174863 30.174 0.0553887L1.174 10.0554C0.77075 10.1944 0.500125 10.5739 0.5 11.0004V59.0004C0.5 59.5526 0.94775 60.0004 1.5 60.0004H6.5C7.05225 60.0004 7.5 59.5526 7.5 59.0004V28.0004H53.5V59.0004C53.5 59.5526 53.9478 60.0004 54.5 60.0004H59.5C60.0522 60.0004 60.5 59.5526 60.5 59.0004V11.0004C60.4999 10.5739 60.2293 10.1944 59.826 10.0554ZM5.5 27.0004V58.0004H2.5V20.0004H5.5V27.0004ZM53.5 26.0004H7.5V24.0004H53.5V26.0004ZM53.5 22.0004H7.5V20.0004H53.5V22.0004ZM58.5 58.0004H55.5V20.0004H58.5V58.0004ZM58.5 18.0004H2.5V11.7134L30.5 2.05839L58.5 11.7134V18.0004Z" fill="#4BA82E"/>
<path d="M49.947 43.0999L46.247 41.2499L42.947 34.6499C42.4394 33.6342 41.3994 32.9946 40.264 32.9998H20.736C19.5988 32.9961 18.5584 33.6391 18.053 34.6579L14.753 41.2579L11.053 43.1079C10.7149 43.2769 10.501 43.6219 10.5 43.9999V57.9999C10.5 59.1045 11.3954 59.9999 12.5 59.9999H16.5C17.6046 59.9999 18.5 59.1045 18.5 57.9999V54.9999H42.5V57.9999C42.5 59.1045 43.3954 59.9999 44.5 59.9999H48.5C49.6046 59.9999 50.5 59.1045 50.5 57.9999V43.9999C50.5021 43.619 50.2876 43.27 49.947 43.0999ZM19.842 35.5529C20.0101 35.2131 20.3569 34.9986 20.736 34.9999H40.264C40.6431 34.9986 40.9899 35.2131 41.158 35.5529L43.882 40.9999H17.118L19.842 35.5529ZM16.5 57.9999H12.5V54.9999H16.5V57.9999ZM48.5 57.9999H44.5V54.9999H48.5V57.9999ZM48.5 52.9999H17.5H12.5V44.6179L15.736 42.9999H45.264L48.5 44.6179V52.9999Z" fill="#4BA82E"/>
<path d="M19.5 44.9999H16.5C15.3954 44.9999 14.5 45.8953 14.5 46.9999V48.9999C14.5 50.1045 15.3954 50.9999 16.5 50.9999H19.5C20.6046 50.9999 21.5 50.1045 21.5 48.9999V46.9999C21.5 45.8953 20.6046 44.9999 19.5 44.9999ZM19.5 48.9999H16.5V46.9999H19.5V48.9999Z" fill="#4BA82E"/>
<path d="M44.5 44.9999H41.5C40.3954 44.9999 39.5 45.8953 39.5 46.9999V48.9999C39.5 50.1045 40.3954 50.9999 41.5 50.9999H44.5C45.6046 50.9999 46.5 50.1045 46.5 48.9999V46.9999C46.5 45.8953 45.6046 44.9999 44.5 44.9999ZM44.5 48.9999H41.5V46.9999H44.5V48.9999Z" fill="#4BA82E"/>
<path d="M35.5 44.9999H25.5C24.3954 44.9999 23.5 45.8953 23.5 46.9999V48.9999C23.5 50.1045 24.3954 50.9999 25.5 50.9999H35.5C36.6046 50.9999 37.5 50.1045 37.5 48.9999V46.9999C37.5 45.8953 36.6046 44.9999 35.5 44.9999ZM35.5 48.9999H25.5V46.9999H35.5V48.9999Z" fill="#4BA82E"/>
</g>
<defs>
<clipPath id="clip0_340_868">
<rect width="60" height="60" fill="white" transform="translate(0.5)"/>
</clipPath>
</defs>
</svg>
