<svg width="50" height="50" viewBox="0 0 50 50" fill="none" xmlns="http://www.w3.org/2000/svg">
<path d="M35.5185 0H14.4814C12.4681 0 10.8429 1.63253 10.8429 3.64223V46.3614C10.8429 48.3693 12.4681 50 14.4814 50H35.5185C37.5282 50 39.1571 48.3693 39.1571 46.3614V3.64223C39.1571 1.63253 37.5282 0 35.5185 0ZM19.809 2.21194H30.1946C30.457 2.21194 30.6701 2.60367 30.6701 3.08833C30.6701 3.57299 30.457 3.96655 30.1946 3.96655H19.809C19.5449 3.96655 19.3353 3.57299 19.3353 3.08833C19.3353 2.60367 19.5449 2.21194 19.809 2.21194ZM25.0018 46.4051C23.7209 46.4051 22.6787 45.3629 22.6787 44.0802C22.6787 42.7975 23.7209 41.759 25.0018 41.759C26.2791 41.759 27.3213 42.7975 27.3213 44.0802C27.3213 45.3629 26.2791 46.4051 25.0018 46.4051ZM36.4314 38.4447H13.5704V6.14569H36.4314V38.4447Z" fill="#4BA82E"/>
</svg>
