<svg width="13" height="14" viewBox="0 0 13 14" xmlns="http://www.w3.org/2000/svg">
<path d="M0.00301648 2.68833C0.22033 4.71388 2.03296 7.05283 4.20633 9.39179C6.3797 11.8103 8.55307 13.7563 10.4352 13.9902C11.8132 14.1446 12.6825 12.4325 12.9694 11.8056C13.0433 11.7261 12.9694 11.5717 12.8955 11.4922L10.4309 9.5415C10.357 9.46196 10.2874 9.46196 10.2136 9.5415C9.77888 10.0093 9.63545 10.0888 9.27033 10.1637C8.40095 10.3975 7.1708 9.462 5.71899 7.82471C4.26718 6.18742 3.40219 4.78404 3.54562 3.928C3.61951 3.53975 3.83686 3.22633 4.12375 2.91288C4.19764 2.83338 4.19764 2.7585 4.12375 2.679L2.38505 0.18567C2.24158 0.0312948 2.02427 -0.0482464 1.80692 0.0312948C1.23313 0.424212 -0.070909 1.35984 0.00301648 2.68838V2.68833Z" />
</svg>
