<?xml version="1.0" encoding="utf-8"?><svg width="60" height="60" fill="none" xmlns="http://www.w3.org/2000/svg" viewBox="0 0 60 60"><path d="M30 0C13.43 0 0 13.432 0 30c0 16.568 13.431 30 30 30 16.567 0 30-13.43 30-30S46.569 0 30 0zm0 57.185A27.185 27.185 0 013.337 24.693a27.186 27.186 0 1126.661 32.492z" fill="#4BA82E"/><path d="M48.842 41.857a12.763 12.763 0 00-6.727-3.297.598.598 0 00-.691.59v.924c0 .275-.21.585-.482.585h-.6c-.708-.01-.838-.88-.695-1.395 1.512-5.418 1.881-8.707 1.862-11.099-.017-2.545-.082-5.08-1.229-8.435-1.104-3.228-2.113-6.39-7.447-11.22a1.897 1.897 0 00-1.217-.52 19.784 19.784 0 00-1.487-.055 22.136 22.136 0 00-6.372.93c-.756.23-.642.756-.228 1.114 2.017 1.716 4.748 4.304 6.626 7.534-1.192.115-2.103-.548-2.871-1.286a36.05 36.05 0 00-7.222-5.276c-.361-.202-.72-.29-1.08-.082a20.213 20.213 0 00-5.663 4.716c-.31.36-.11.642.194.803a41.591 41.591 0 017.973 5.664c-.582.49-1.507.33-2.846-.373a32.08 32.08 0 00-6.939-2.617c-.403-.103-.837.01-1.046.37-1.21 2.098-2.043 4.61-2.437 7.16a.883.883 0 00.745 1.008c4.403.77 12.25 2.84 13.553 11.88.112.79-.608 1.487-1.556 1.04l-3.967-1.857a1.104 1.104 0 00-.446-.12H10.31c-.885 0-1.252.848-.675 1.508a38.825 38.825 0 014.05 5.566.438.438 0 00.426.242h2.731a.963.963 0 00.503-.138l2.57-1.503a.907.907 0 01.504-.094h20.517a.462.462 0 01.498.453v1.011a.597.597 0 00.69.588 12.761 12.761 0 006.718-3.303.694.694 0 000-1.016zm-14.84-3.77a2.765 2.765 0 110-5.53 2.765 2.765 0 010 5.53z" fill="#4BA82E"/></svg>