<?xml version="1.0" encoding="utf-8"?><svg width="50" height="50" fill="none" xmlns="http://www.w3.org/2000/svg" viewBox="0 0 50 50"><path d="M25.893 25a.893.893 0 11-1.786 0 .893.893 0 011.786 0z" fill="#4BA82E"/><path d="M42.857 25c0-.493.4-.893.893-.893h2.656a21.278 21.278 0 00-2.425-9.035l-2.296 1.326a.894.894 0 11-.893-1.546l2.293-1.325a21.59 21.59 0 00-6.613-6.612l-1.324 2.293a.894.894 0 11-1.546-.893l1.326-2.296a21.276 21.276 0 00-9.035-2.425V6.25a.893.893 0 01-1.786 0V3.594c-3.154.128-6.24.956-9.035 2.425l1.326 2.296a.894.894 0 11-1.546.893l-1.324-2.293a21.59 21.59 0 00-6.613 6.612l2.293 1.325a.894.894 0 11-.893 1.546L6.02 15.072a21.276 21.276 0 00-2.425 9.035H6.25a.893.893 0 010 1.786H3.594c.128 3.154.956 6.24 2.425 9.035l2.296-1.326a.894.894 0 11.893 1.546l-2.293 1.324a21.59 21.59 0 006.613 6.613l1.324-2.293a.894.894 0 111.546.893l-1.326 2.296a21.276 21.276 0 009.035 2.425V43.75a.893.893 0 111.786 0v2.656a21.276 21.276 0 009.035-2.425l-1.326-2.296a.894.894 0 111.546-.893l1.324 2.293a21.59 21.59 0 006.613-6.613l-2.293-1.324a.894.894 0 11.893-1.546l2.296 1.326a21.278 21.278 0 002.425-9.035H43.75a.893.893 0 01-.893-.893zM25 27.678a2.679 2.679 0 01-2.514-1.785h-4.629a.893.893 0 010-1.786h4.629a2.676 2.676 0 011.621-1.621V12.5a.893.893 0 111.786 0v9.986A2.672 2.672 0 0125 27.678z" fill="#4BA82E"/><path d="M25 0C11.193 0 0 11.193 0 25s11.193 25 25 25 25-11.193 25-25C49.984 11.2 38.8.016 25 0zm20.105 36.607c-.015.025-.036.044-.053.068a23.382 23.382 0 01-8.401 8.393c-.017.01-.026.028-.044.038a.904.904 0 01-.082.034 23.126 23.126 0 01-23.05 0 .918.918 0 01-.082-.035c-.018-.01-.027-.028-.044-.039a23.381 23.381 0 01-8.4-8.393c-.018-.024-.04-.043-.054-.068-.014-.024-.01-.037-.018-.056a23.125 23.125 0 010-23.102c.009-.018.008-.038.018-.056.011-.018.028-.028.039-.043a23.38 23.38 0 018.415-8.416c.017-.01.026-.028.044-.038.018-.01.037-.01.056-.019a23.125 23.125 0 0123.102 0c.019.01.038.008.056.019.018.01.027.028.044.038a23.38 23.38 0 018.415 8.416c.01.016.028.025.038.043.01.018.01.038.02.056a23.125 23.125 0 010 23.102c-.01.02-.009.04-.02.058z" fill="#4BA82E"/></svg>