<?xml version="1.0" encoding="utf-8"?><svg width="60" height="60" fill="none" xmlns="http://www.w3.org/2000/svg" viewBox="0 0 60 60"><path d="M30.583 21.055c-5.055-.388-9.139-4.472-9.139-9.527 0-5.25 4.278-9.528 9.528-9.528 5.25 0 9.528 4.278 9.528 9.528 0 2.139-.778 4.472-1.944 6.027" stroke="#4BA82E" stroke-width="3" stroke-miterlimit="10" stroke-linecap="round" stroke-linejoin="round"/><path d="M47.694 27.083c0 5.25-4.278 9.528-9.527 9.528-5.25 0-9.528-4.278-9.528-9.528 0-5.25 4.278-9.527 9.528-9.527 5.25-.195 9.527 4.277 9.527 9.527z" stroke="#4BA82E" stroke-width="3" stroke-miterlimit="10" stroke-linecap="round" stroke-linejoin="round"/><path d="M11.722 43.417c5.056-.778 11.861-1.361 15.944 0l13.417 4.277c3.89 1.167 2.14 7.39-1.75 6.223l-14-4.473" stroke="#4BA82E" stroke-width="3" stroke-linecap="round" stroke-linejoin="round"/><path d="M42.833 49.25l10.5-5.056c3.695-1.944 6.222 4.084 2.528 5.834-15.75 7.778-14.583 7.778-20.805 7.778-3.695 0-8.945-.584-15.945-3.89-1.36-.777-4.472-.194-7.389.584" stroke="#4BA82E" stroke-width="3" stroke-linecap="round" stroke-linejoin="round"/><path d="M11.722 40.5H2V58h9.722V40.5z" stroke="#4BA82E" stroke-width="3" stroke-linecap="round" stroke-linejoin="round"/></svg>