<?xml version="1.0" encoding="utf-8"?><svg width="61" height="60" fill="none" xmlns="http://www.w3.org/2000/svg" viewBox="0 0 61 60"><g clip-path="url(#iclip0_340_925)"><path d="M50.027 49.527c10.959-10.959 10.959-28.726 0-39.685-10.959-10.958-28.726-10.958-39.685 0-10.958 10.959-10.958 28.726 0 39.685 10.959 10.958 28.726 10.958 39.685 0z" stroke="#4BA82E" stroke-width="3" stroke-miterlimit="10" stroke-linecap="round" stroke-linejoin="round"/><path d="M27.414 30.48v3.024h8.964v2.052h-8.964V42h-2.592v-6.444h-3.564v-2.052h3.564V30.48h-3.528v-2.196h3.528V16.656h8.388c1.416 0 2.712.252 3.888.756 1.2.504 2.16 1.272 2.88 2.304.72 1.032 1.08 2.316 1.08 3.852s-.36 2.82-1.08 3.852c-.696 1.032-1.644 1.8-2.844 2.304-1.176.504-2.484.756-3.924.756h-5.796zm0-2.196h5.796c1.08 0 2.004-.192 2.772-.576.768-.384 1.344-.924 1.728-1.62.408-.72.612-1.548.612-2.484 0-1.416-.444-2.532-1.332-3.348-.888-.816-2.148-1.224-3.78-1.224h-5.796v9.252z" fill="#4BA82E"/></g><defs><clipPath id="iclip0_340_925"><path fill="#fff" transform="translate(.5)" d="M0 0h60v60H0z"/></clipPath></defs></svg>