<?xml version="1.0" encoding="utf-8"?><svg width="61" height="60" fill="none" xmlns="http://www.w3.org/2000/svg" viewBox="0 0 61 60"><g clip-path="url(#gclip0_340_868)" fill="#4BA82E"><path d="M59.826 10.055l-29-10a1 1 0 00-.652 0l-29 10A1 1 0 00.5 11v48a1 1 0 001 1h5a1 1 0 001-1V28h46v31a1 1 0 001 1h5a1 1 0 001-1V11a1 1 0 00-.674-.945zM5.5 27v31h-3V20h3v7zm48-1h-46v-2h46v2zm0-4h-46v-2h46v2zm5 36h-3V20h3v38zm0-40h-56v-6.287l28-9.655 28 9.655V18z"/><path d="M49.947 43.1l-3.7-1.85-3.3-6.6A2.984 2.984 0 0040.264 33H20.736a2.984 2.984 0 00-2.683 1.658l-3.3 6.6-3.7 1.85A1 1 0 0010.5 44v14a2 2 0 002 2h4a2 2 0 002-2v-3h24v3a2 2 0 002 2h4a2 2 0 002-2V44a1 1 0 00-.553-.9zm-30.105-7.547a.994.994 0 01.894-.553h19.528a.994.994 0 01.894.553L43.882 41H17.118l2.724-5.447zM16.5 58h-4v-3h4v3zm32 0h-4v-3h4v3zm0-5h-36v-8.382L15.736 43h29.528l3.236 1.618V53z"/><path d="M19.5 45h-3a2 2 0 00-2 2v2a2 2 0 002 2h3a2 2 0 002-2v-2a2 2 0 00-2-2zm0 4h-3v-2h3v2zM44.5 45h-3a2 2 0 00-2 2v2a2 2 0 002 2h3a2 2 0 002-2v-2a2 2 0 00-2-2zm0 4h-3v-2h3v2zM35.5 45h-10a2 2 0 00-2 2v2a2 2 0 002 2h10a2 2 0 002-2v-2a2 2 0 00-2-2zm0 4h-10v-2h10v2z"/></g><defs><clipPath id="gclip0_340_868"><path fill="#fff" transform="translate(.5)" d="M0 0h60v60H0z"/></clipPath></defs></svg>