<?xml version="1.0" encoding="utf-8"?><svg width="50" height="50" fill="none" xmlns="http://www.w3.org/2000/svg" viewBox="0 0 50 50"><path d="M41.048 30.722h-5.854l2.49-3.597c4.705-6.27 4.024-16.577-1.455-22.055A15.57 15.57 0 0025.145.478c-4.187 0-8.124 1.63-11.085 4.592-5.479 5.478-6.16 15.786-1.474 22.03l2.508 3.623H8.952L0 49.523h50l-8.952-18.801zM25.289 10.286a5.73 5.73 0 015.722 5.722 5.73 5.73 0 01-5.722 5.722 5.73 5.73 0 01-5.722-5.722 5.729 5.729 0 015.722-5.722zM9.986 32.356h6.24l8.919 12.88 8.918-12.88h5.951l7.396 15.532H2.59l7.396-15.531z" fill="#4BA82E"/></svg>