<?xml version="1.0" encoding="utf-8"?><svg width="50" height="50" fill="none" xmlns="http://www.w3.org/2000/svg" viewBox="0 0 50 50"><path d="M35.519 0H14.48a3.64 3.64 0 00-3.638 3.642v42.72A3.637 3.637 0 0014.48 50H35.52a3.64 3.64 0 003.638-3.639V3.642A3.641 3.641 0 0035.52 0zm-15.71 2.212h10.386c.262 0 .475.392.475.876 0 .485-.213.879-.475.879H19.809c-.264 0-.474-.394-.474-.879 0-.484.21-.876.474-.876zm5.193 44.193a2.323 2.323 0 110-4.646 2.322 2.322 0 010 4.646zm11.43-7.96H13.57v-32.3h22.861v32.3z" fill="#4BA82E"/></svg>