<?xml version="1.0" encoding="utf-8"?><svg width="13" height="14" xmlns="http://www.w3.org/2000/svg" viewBox="0 0 13 14"><path d="M.003 2.688c.217 2.026 2.03 4.365 4.203 6.704 2.174 2.418 4.347 4.364 6.23 4.598 1.377.155 2.246-1.558 2.533-2.184.074-.08 0-.234-.073-.314l-2.465-1.95c-.074-.08-.144-.08-.217 0-.435.467-.579.547-.944.622-.869.234-2.1-.702-3.551-2.34-1.452-1.637-2.317-3.04-2.173-3.896.074-.388.29-.702.578-1.015.074-.08.074-.154 0-.234L2.385.186A.533.533 0 001.807.03C1.233.424-.071 1.36.003 2.688z"/></svg>