<?xml version="1.0" encoding="utf-8"?><svg viewBox="0 0 61 60" xmlns="http://www.w3.org/2000/svg" xmlns:xlink="http://www.w3.org/1999/xlink"><style>:root>svg{display:none}:root>svg:target{display:block}</style><svg fill="none" viewBox="0 0 9 14" id="arrow-rg" xmlns="http://www.w3.org/2000/svg"><path d="M1.703 0L0 1.633 5.595 7 0 12.367 1.703 14 9 7 1.703 0z" fill="#4BA82E"/></svg><svg fill="none" viewBox="0 0 10 7" id="checkmark" xmlns="http://www.w3.org/2000/svg"><path d="M1 3l3 3 5-5" stroke="#4BA82E"/></svg><svg fill="none" viewBox="0 0 8 5" id="down" xmlns="http://www.w3.org/2000/svg"><path d="M.5.5L4 4 7.5.5" stroke="#4BA82E"/></svg><svg fill="none" viewBox="0 0 50 50" id="icon_01" xmlns="http://www.w3.org/2000/svg"><path d="M35.519 0H14.48a3.64 3.64 0 00-3.638 3.642v42.72A3.637 3.637 0 0014.48 50H35.52a3.64 3.64 0 003.638-3.639V3.642A3.641 3.641 0 0035.52 0zm-15.71 2.212h10.386c.262 0 .475.392.475.876 0 .485-.213.879-.475.879H19.809c-.264 0-.474-.394-.474-.879 0-.484.21-.876.474-.876zm5.193 44.193a2.323 2.323 0 110-4.646 2.322 2.322 0 010 4.646zm11.43-7.96H13.57v-32.3h22.861v32.3z" fill="#4BA82E"/></svg><svg fill="none" viewBox="0 0 50 50" id="icon_02" xmlns="http://www.w3.org/2000/svg"><path d="M41.048 30.722h-5.854l2.49-3.597c4.705-6.27 4.024-16.577-1.455-22.055A15.57 15.57 0 0025.145.478c-4.187 0-8.124 1.63-11.085 4.592-5.479 5.478-6.16 15.786-1.474 22.03l2.508 3.623H8.952L0 49.523h50l-8.952-18.801zM25.289 10.286a5.73 5.73 0 015.722 5.722 5.73 5.73 0 01-5.722 5.722 5.73 5.73 0 01-5.722-5.722 5.729 5.729 0 015.722-5.722zM9.986 32.356h6.24l8.919 12.88 8.918-12.88h5.951l7.396 15.532H2.59l7.396-15.531z" fill="#4BA82E"/></svg><svg fill="none" viewBox="0 0 50 50" id="icon_03" xmlns="http://www.w3.org/2000/svg"><path d="M25.893 25a.893.893 0 11-1.786 0 .893.893 0 011.786 0z" fill="#4BA82E"/><path d="M42.857 25c0-.493.4-.893.893-.893h2.656a21.278 21.278 0 00-2.425-9.035l-2.296 1.326a.894.894 0 11-.893-1.546l2.293-1.325a21.59 21.59 0 00-6.613-6.612l-1.324 2.293a.894.894 0 11-1.546-.893l1.326-2.296a21.276 21.276 0 00-9.035-2.425V6.25a.893.893 0 01-1.786 0V3.594c-3.154.128-6.24.956-9.035 2.425l1.326 2.296a.894.894 0 11-1.546.893l-1.324-2.293a21.59 21.59 0 00-6.613 6.612l2.293 1.325a.894.894 0 11-.893 1.546L6.02 15.072a21.276 21.276 0 00-2.425 9.035H6.25a.893.893 0 010 1.786H3.594c.128 3.154.956 6.24 2.425 9.035l2.296-1.326a.894.894 0 11.893 1.546l-2.293 1.324a21.59 21.59 0 006.613 6.613l1.324-2.293a.894.894 0 111.546.893l-1.326 2.296a21.276 21.276 0 009.035 2.425V43.75a.893.893 0 111.786 0v2.656a21.276 21.276 0 009.035-2.425l-1.326-2.296a.894.894 0 111.546-.893l1.324 2.293a21.59 21.59 0 006.613-6.613l-2.293-1.324a.894.894 0 11.893-1.546l2.296 1.326a21.278 21.278 0 002.425-9.035H43.75a.893.893 0 01-.893-.893zM25 27.678a2.679 2.679 0 01-2.514-1.785h-4.629a.893.893 0 010-1.786h4.629a2.676 2.676 0 011.621-1.621V12.5a.893.893 0 111.786 0v9.986A2.672 2.672 0 0125 27.678z" fill="#4BA82E"/><path d="M25 0C11.193 0 0 11.193 0 25s11.193 25 25 25 25-11.193 25-25C49.984 11.2 38.8.016 25 0zm20.105 36.607c-.015.025-.036.044-.053.068a23.382 23.382 0 01-8.401 8.393c-.017.01-.026.028-.044.038a.904.904 0 01-.082.034 23.126 23.126 0 01-23.05 0 .918.918 0 01-.082-.035c-.018-.01-.027-.028-.044-.039a23.381 23.381 0 01-8.4-8.393c-.018-.024-.04-.043-.054-.068-.014-.024-.01-.037-.018-.056a23.125 23.125 0 010-23.102c.009-.018.008-.038.018-.056.011-.018.028-.028.039-.043a23.38 23.38 0 018.415-8.416c.017-.01.026-.028.044-.038.018-.01.037-.01.056-.019a23.125 23.125 0 0123.102 0c.019.01.038.008.056.019.018.01.027.028.044.038a23.38 23.38 0 018.415 8.416c.01.016.028.025.038.043.01.018.01.038.02.056a23.125 23.125 0 010 23.102c-.01.02-.009.04-.02.058z" fill="#4BA82E"/></svg><svg fill="none" viewBox="0 0 61 60" id="icon_1" xmlns="http://www.w3.org/2000/svg"><g clip-path="url(#gclip0_340_868)" fill="#4BA82E"><path d="M59.826 10.055l-29-10a1 1 0 00-.652 0l-29 10A1 1 0 00.5 11v48a1 1 0 001 1h5a1 1 0 001-1V28h46v31a1 1 0 001 1h5a1 1 0 001-1V11a1 1 0 00-.674-.945zM5.5 27v31h-3V20h3v7zm48-1h-46v-2h46v2zm0-4h-46v-2h46v2zm5 36h-3V20h3v38zm0-40h-56v-6.287l28-9.655 28 9.655V18z"/><path d="M49.947 43.1l-3.7-1.85-3.3-6.6A2.984 2.984 0 0040.264 33H20.736a2.984 2.984 0 00-2.683 1.658l-3.3 6.6-3.7 1.85A1 1 0 0010.5 44v14a2 2 0 002 2h4a2 2 0 002-2v-3h24v3a2 2 0 002 2h4a2 2 0 002-2V44a1 1 0 00-.553-.9zm-30.105-7.547a.994.994 0 01.894-.553h19.528a.994.994 0 01.894.553L43.882 41H17.118l2.724-5.447zM16.5 58h-4v-3h4v3zm32 0h-4v-3h4v3zm0-5h-36v-8.382L15.736 43h29.528l3.236 1.618V53z"/><path d="M19.5 45h-3a2 2 0 00-2 2v2a2 2 0 002 2h3a2 2 0 002-2v-2a2 2 0 00-2-2zm0 4h-3v-2h3v2zM44.5 45h-3a2 2 0 00-2 2v2a2 2 0 002 2h3a2 2 0 002-2v-2a2 2 0 00-2-2zm0 4h-3v-2h3v2zM35.5 45h-10a2 2 0 00-2 2v2a2 2 0 002 2h10a2 2 0 002-2v-2a2 2 0 00-2-2zm0 4h-10v-2h10v2z"/></g><defs><clipPath id="gclip0_340_868"><path fill="#fff" transform="translate(.5)" d="M0 0h60v60H0z"/></clipPath></defs></svg><svg fill="none" viewBox="0 0 60 60" id="icon_2" xmlns="http://www.w3.org/2000/svg"><path d="M30 0C13.43 0 0 13.432 0 30c0 16.568 13.431 30 30 30 16.567 0 30-13.43 30-30S46.569 0 30 0zm0 57.185A27.185 27.185 0 013.337 24.693a27.186 27.186 0 1126.661 32.492z" fill="#4BA82E"/><path d="M48.842 41.857a12.763 12.763 0 00-6.727-3.297.598.598 0 00-.691.59v.924c0 .275-.21.585-.482.585h-.6c-.708-.01-.838-.88-.695-1.395 1.512-5.418 1.881-8.707 1.862-11.099-.017-2.545-.082-5.08-1.229-8.435-1.104-3.228-2.113-6.39-7.447-11.22a1.897 1.897 0 00-1.217-.52 19.784 19.784 0 00-1.487-.055 22.136 22.136 0 00-6.372.93c-.756.23-.642.756-.228 1.114 2.017 1.716 4.748 4.304 6.626 7.534-1.192.115-2.103-.548-2.871-1.286a36.05 36.05 0 00-7.222-5.276c-.361-.202-.72-.29-1.08-.082a20.213 20.213 0 00-5.663 4.716c-.31.36-.11.642.194.803a41.591 41.591 0 017.973 5.664c-.582.49-1.507.33-2.846-.373a32.08 32.08 0 00-6.939-2.617c-.403-.103-.837.01-1.046.37-1.21 2.098-2.043 4.61-2.437 7.16a.883.883 0 00.745 1.008c4.403.77 12.25 2.84 13.553 11.88.112.79-.608 1.487-1.556 1.04l-3.967-1.857a1.104 1.104 0 00-.446-.12H10.31c-.885 0-1.252.848-.675 1.508a38.825 38.825 0 014.05 5.566.438.438 0 00.426.242h2.731a.963.963 0 00.503-.138l2.57-1.503a.907.907 0 01.504-.094h20.517a.462.462 0 01.498.453v1.011a.597.597 0 00.69.588 12.761 12.761 0 006.718-3.303.694.694 0 000-1.016zm-14.84-3.77a2.765 2.765 0 110-5.53 2.765 2.765 0 010 5.53z" fill="#4BA82E"/></svg><svg fill="none" viewBox="0 0 61 60" id="icon_3" xmlns="http://www.w3.org/2000/svg"><g clip-path="url(#iclip0_340_925)"><path d="M50.027 49.527c10.959-10.959 10.959-28.726 0-39.685-10.959-10.958-28.726-10.958-39.685 0-10.958 10.959-10.958 28.726 0 39.685 10.959 10.958 28.726 10.958 39.685 0z" stroke="#4BA82E" stroke-width="3" stroke-miterlimit="10" stroke-linecap="round" stroke-linejoin="round"/><path d="M27.414 30.48v3.024h8.964v2.052h-8.964V42h-2.592v-6.444h-3.564v-2.052h3.564V30.48h-3.528v-2.196h3.528V16.656h8.388c1.416 0 2.712.252 3.888.756 1.2.504 2.16 1.272 2.88 2.304.72 1.032 1.08 2.316 1.08 3.852s-.36 2.82-1.08 3.852c-.696 1.032-1.644 1.8-2.844 2.304-1.176.504-2.484.756-3.924.756h-5.796zm0-2.196h5.796c1.08 0 2.004-.192 2.772-.576.768-.384 1.344-.924 1.728-1.62.408-.72.612-1.548.612-2.484 0-1.416-.444-2.532-1.332-3.348-.888-.816-2.148-1.224-3.78-1.224h-5.796v9.252z" fill="#4BA82E"/></g><defs><clipPath id="iclip0_340_925"><path fill="#fff" transform="translate(.5)" d="M0 0h60v60H0z"/></clipPath></defs></svg><svg fill="none" viewBox="0 0 60 60" id="icon_4" xmlns="http://www.w3.org/2000/svg"><path d="M30.583 21.055c-5.055-.388-9.139-4.472-9.139-9.527 0-5.25 4.278-9.528 9.528-9.528 5.25 0 9.528 4.278 9.528 9.528 0 2.139-.778 4.472-1.944 6.027" stroke="#4BA82E" stroke-width="3" stroke-miterlimit="10" stroke-linecap="round" stroke-linejoin="round"/><path d="M47.694 27.083c0 5.25-4.278 9.528-9.527 9.528-5.25 0-9.528-4.278-9.528-9.528 0-5.25 4.278-9.527 9.528-9.527 5.25-.195 9.527 4.277 9.527 9.527z" stroke="#4BA82E" stroke-width="3" stroke-miterlimit="10" stroke-linecap="round" stroke-linejoin="round"/><path d="M11.722 43.417c5.056-.778 11.861-1.361 15.944 0l13.417 4.277c3.89 1.167 2.14 7.39-1.75 6.223l-14-4.473" stroke="#4BA82E" stroke-width="3" stroke-linecap="round" stroke-linejoin="round"/><path d="M42.833 49.25l10.5-5.056c3.695-1.944 6.222 4.084 2.528 5.834-15.75 7.778-14.583 7.778-20.805 7.778-3.695 0-8.945-.584-15.945-3.89-1.36-.777-4.472-.194-7.389.584" stroke="#4BA82E" stroke-width="3" stroke-linecap="round" stroke-linejoin="round"/><path d="M11.722 40.5H2V58h9.722V40.5z" stroke="#4BA82E" stroke-width="3" stroke-linecap="round" stroke-linejoin="round"/></svg><svg viewBox="0 0 13 14" id="phone" xmlns="http://www.w3.org/2000/svg"><path d="M.003 2.688c.217 2.026 2.03 4.365 4.203 6.704 2.174 2.418 4.347 4.364 6.23 4.598 1.377.155 2.246-1.558 2.533-2.184.074-.08 0-.234-.073-.314l-2.465-1.95c-.074-.08-.144-.08-.217 0-.435.467-.579.547-.944.622-.869.234-2.1-.702-3.551-2.34-1.452-1.637-2.317-3.04-2.173-3.896.074-.388.29-.702.578-1.015.074-.08.074-.154 0-.234L2.385.186A.533.533 0 001.807.03C1.233.424-.071 1.36.003 2.688z"/></svg></svg>